{"title":"Looney, Looney, Looney Bugs Bunny Movie 1080P WEB-DL (1981)","uid":10812025,"size":3034929403,"categoryP":"video","categoryS":"hd___movies","magnet":"?xt=urn:btih:fdfe572842e820881bb41fdc0f7a01722b0c349e&amp;dn=Looney%2C+Looney%2C+Looney+Bugs+Bunny+Movie+1080P+WEB-DL+%281981%29&amp;tr=udp%3A%2F%2Ftracker.openbittorrent.com%3A80&amp;tr=udp%3A%2F%2Fopen.demonii.com%3A1337&amp;tr=udp%3A%2F%2Ftracker.coppersurfer.tk%3A6969&amp;tr=udp%3A%2F%2Fexodus.desync.com%3A6969","seeders":0,"leechers":2,"uploader":"jmanwf","files":-1,"time":1408438009,"description":"Storyline\n\nThis is the second feature-length film containing classic Warner Brothers cartoons linked together by newly animated footage. It is divided into three parts, all of which are being shown in a theater as part of a film ceremony honoring the classic Looney Tunes characters. Part 1 involves Yosemite Sam's pact with the Devil to exchange his place in Hell with Bugs Bunny, provided that Sam can lure Bugs into sin and then kill him. Part 2 is a parody of TV crime-fighting dramas as Bugs is selected by law-enforcement to find and apprehend gangster Rocky, who has kidnaped Tweety Bird for a ransom. Part 3 is an Academy Awards-like contest in which various classic cartoon shorts are showcased.\n\n\n\nFormat : MPEG-4\nFormat profile : Base Media / Version 2\nCodec ID : mp42\nFile size : 2.83 GiB\nDuration : 1h 19mn\nOverall bit rate mode : Variable\nOverall bit rate : 5 085 Kbps\nMovie name : The Looney, Looney, Looney Bugs Bunny Movie\nPerformer : Friz Freleng\nGenre : Kids &amp; Family\nVideo\nID : 2\nFormat : AVC\nFormat/Info : Advanced Video Codec\nFormat profile : &lt;a class=&quot;__cf_email__&quot; href=&quot;/cdn-cgi/l/email-protection&quot; data-cfemail=&quot;98d0f1fff0d8d4acb6a8&quot;&gt;[email&amp;#160;protected]&lt;/a&gt;&lt;script cf-hash='f9e31' type=&quot;text/javascript&quot;&gt;\n/* &lt;![CDATA[ */!function(){try{var t=&quot;currentScript&quot;in document?document.currentScript:function(){for(var t=document.getElementsByTagName(&quot;script&quot;),e=t.length;e--;)if(t[e].getAttribute(&quot;cf-hash&quot;))return t[e]}();if(t&amp;&amp;t.previousSibling){var e,r,n,i,c=t.previousSibling,a=c.getAttribute(&quot;data-cfemail&quot;);if(a){for(e=&quot;&quot;,r=parseInt(a.substr(0,2),16),n=2;a.length-n;n+=2)i=parseInt(a.substr(n,2),16)^r,e+=String.fromCharCode(i);e=document.createTextNode(e),c.parentNode.replaceChild(e,c)}}}catch(u){}}();/* ]]&gt; */&lt;/script&gt;\nFormat settings, CABAC : Yes\nFormat settings, ReFrames : 5 frames\nFormat settings, GOP : N=2\nCodec ID : avc1\nCodec ID/Info : Advanced Video Coding\nDuration : 1h 19mn\nBit rate : 4 970 Kbps\nWidth : 1 480 pixels\nHeight : 1 080 pixels\nDisplay aspect ratio : 1.370\nFrame rate : 23.976 fps\nColor space : YUV\nChroma subsampling : 4:2:0\nBit depth : 8 bits\nScan type : Progressive\nBits/(Pixel*Frame) : 0.130\nStream size : 2.76 GiB (98%)\nLanguage : English\nEncoded date : UTC 2014-08-17 01:05:56\nTagged date : UTC 2014-08-17 01:08:54\nColor primaries : BT.709\nTransfer characteristics : BT.709\nMatrix coefficients : BT.709\n\nAudio\nID : 1\nFormat : AAC\nFormat/Info : Advanced Audio Codec\nFormat profile : LC\nCodec ID : 40\nDuration : 1h 19mn\nBit rate mode : Variable\nBit rate : 110 Kbps\nMaximum bit rate : 122 Kbps\nChannel(s) : 2 channels\nChannel positions : Front: L R\nSampling rate : 48.0 KHz\nCompression mode : Lossy\nStream size : 62.9 MiB (2%)\nLanguage : English\nEncoded date : UTC 2014-08-17 01:01:39\nTagged date : UTC 2014-08-17 01:05:55\n\n\n &lt;a href=&quot;\nhttp://www.imdb.com/title/tt0082679/&quot; rel=&quot;nofollow&quot; target=&quot;_NEW&quot;&gt;\nhttp://www.imdb.com/title/tt0082679/&lt;/a&gt;","torrent":{"xt":"urn:btih:fdfe572842e820881bb41fdc0f7a01722b0c349e","amp;dn":"Looney%2C+Looney%2C+Looney+Bugs+Bunny+Movie+1080P+WEB-DL+%281981%29","amp;tr":["udp%3A%2F%2Ftracker.openbittorrent.com%3A80","udp%3A%2F%2Fopen.demonii.com%3A1337","udp%3A%2F%2Ftracker.coppersurfer.tk%3A6969","udp%3A%2F%2Fexodus.desync.com%3A6969"],"infoHash":"fdfe572842e820881bb41fdc0f7a01722b0c349e","infoHashBuffer":{"type":"Buffer","data":[253,254,87,40,66,232,32,136,27,180,31,220,15,122,1,114,43,12,52,158]},"announce":[],"urlList":[]}}